<?xml version="1.0" encoding="UTF-8" standalone="no"?>
<svg
   xmlns:dc="http://purl.org/dc/elements/1.1/"
   xmlns:cc="http://creativecommons.org/ns#"
   xmlns:rdf="http://www.w3.org/1999/02/22-rdf-syntax-ns#"
   xmlns:svg="http://www.w3.org/2000/svg"
   xmlns="http://www.w3.org/2000/svg"
   xmlns:sodipodi="http://sodipodi.sourceforge.net/DTD/sodipodi-0.dtd"
   xmlns:inkscape="http://www.inkscape.org/namespaces/inkscape"
   width="74mm"
   height="26mm"
   viewBox="0 0 74 26"
   version="1.1"
   id="svg8"
   inkscape:version="1.0.1 (c497b03c, 2020-09-10)"
   sodipodi:docname="_.svg">
  <defs
     id="defs2" />
  <sodipodi:namedview
     id="base"
     pagecolor="#ffffff"
     bordercolor="#666666"
     borderopacity="1.0"
     inkscape:pageopacity="0.0"
     inkscape:pageshadow="2"
     inkscape:zoom="2.5612251"
     inkscape:cx="56.639347"
     inkscape:cy="105.06251"
     inkscape:document-units="mm"
     inkscape:current-layer="layer1"
     inkscape:document-rotation="0"
     showgrid="false"
     inkscape:window-width="1663"
     inkscape:window-height="1174"
     inkscape:window-x="0"
     inkscape:window-y="23"
     inkscape:window-maximized="0"
     inkscape:pagecheckerboard="true" />
  <metadata
     id="metadata5">
    <rdf:RDF>
      <cc:Work
         rdf:about="">
        <dc:format>image/svg+xml</dc:format>
        <dc:type
           rdf:resource="http://purl.org/dc/dcmitype/StillImage" />
        <dc:title></dc:title>
      </cc:Work>
    </rdf:RDF>
  </metadata>
  <g
     inkscape:label="レイヤー 1"
     inkscape:groupmode="layer"
     id="layer1">
    <g
       aria-label="ramdaq"
       id="text12-9"
       style="font-style:normal;font-weight:normal;font-size:22.5321px;line-height:1.25;font-family:sans-serif;fill:#66b8cf;fill-opacity:1;stroke:none;stroke-width:0.563305">
      <path
         d="M 3.5727488,17.442753 4.9246748,6.1992346 H 5.409115 q 0.3943118,0 0.3943118,0.4055778 L 5.4767113,9.9395633 Q 6.2428027,8.1031971 7.2229491,7.1117847 8.2143615,6.1091062 9.3297005,6.1091062 q 0.4619081,0 0.9463485,0.1915229 L 10.084526,7.3033075 Q 9.5662876,7.1117847 9.1156456,7.1117847 q -1.2054674,0 -2.1743478,1.1942013 -0.9576142,1.1829353 -1.6448433,3.424879 l -0.675963,5.711888 z"
         style="font-style:italic;font-variant:normal;font-weight:300;font-stretch:normal;font-family:Lato;-inkscape-font-specification:'Lato Light Italic';fill:#66b8cf;fill-opacity:1;stroke-width:0.563305"
         id="path62" />
      <path
         d="m 18.272832,17.442753 h -0.518238 q -0.214055,0 -0.304184,-0.101395 -0.07886,-0.101394 -0.07886,-0.247853 l 0.37178,-3.526273 q -0.42811,0.901284 -0.946349,1.644843 -0.506972,0.732293 -1.092807,1.261798 -0.574568,0.529504 -1.216733,0.822421 -0.642165,0.292917 -1.329394,0.292917 -0.709761,0 -1.239266,-0.270385 -0.529504,-0.281651 -0.890017,-0.788623 -0.349248,-0.506973 -0.529505,-1.228 Q 10.319,14.581176 10.319,13.679892 q 0,-0.980146 0.247853,-1.915229 0.247854,-0.946348 0.698496,-1.7913015 0.461908,-0.8449538 1.092806,-1.554715 0.630899,-0.7097612 1.385725,-1.2279995 0.766091,-0.5182383 1.633577,-0.8111556 0.867486,-0.2929173 1.791302,-0.2929173 0.675963,0 1.261798,0.1239266 0.585834,0.1126605 1.160403,0.4055778 z m -4.765539,-0.743559 q 0.642164,0 1.261797,-0.360514 0.630899,-0.360514 1.194202,-1.013945 0.563302,-0.664697 1.059008,-1.588513 0.506973,-0.935082 0.901284,-2.061687 l 0.563303,-4.5627503 q -0.664697,-0.225321 -1.442055,-0.225321 -0.754825,0 -1.464586,0.2591191 -0.709761,0.2478531 -1.34066,0.6984951 -0.619633,0.4506421 -1.149137,1.0702748 -0.518239,0.6196328 -0.901284,1.3631923 -0.383046,0.732293 -0.597101,1.554715 -0.202789,0.822421 -0.202789,1.678641 0,1.509651 0.506972,2.354605 0.518239,0.833688 1.611046,0.833688 z"
         style="font-style:italic;font-variant:normal;font-weight:300;font-stretch:normal;font-family:Lato;-inkscape-font-specification:'Lato Light Italic';fill:#66b8cf;fill-opacity:1;stroke-width:0.563305"
         id="path64" />
      <path
         d="M 21.748057,17.442753 23.099983,6.1992346 h 0.48444 q 0.394312,0 0.394312,0.4055778 l -0.315449,3.131962 q 0.878752,-1.7462378 2.027889,-2.7038521 1.149137,-0.9688803 2.4222,-0.9688803 1.126605,0 1.59978,0.7097612 0.48444,0.7097611 0.48444,2.0391551 0,0.3830457 -0.0338,0.8224217 0.439376,-0.9012841 0.957614,-1.565981 0.529504,-0.6759631 1.104073,-1.115339 0.585834,-0.450642 1.194201,-0.664697 0.608367,-0.225321 1.205468,-0.225321 1.205467,0 1.734971,0.7660914 0.529505,0.7548254 0.529505,2.1630817 0,0.1126605 -0.01127,0.2591191 0,0.1351926 -0.0338,0.439376 -0.02253,0.3041834 -0.07886,0.8449538 -0.05633,0.529504 -0.157725,1.430788 -0.101394,0.901284 -0.259119,2.241944 -0.157724,1.329394 -0.383045,3.233357 H 34.91807 l 0.844954,-7.165208 q 0.04506,-0.3492477 0.0676,-0.6534311 0.02253,-0.3154494 0.02253,-0.5971007 0,-1.0139445 -0.349248,-1.5321828 -0.349247,-0.5295044 -1.216733,-0.5295044 -0.552036,0 -1.126605,0.2591192 -0.563303,0.2478531 -1.115339,0.7548254 -0.54077,0.5069722 -1.036477,1.2730636 -0.48444,0.7660918 -0.878752,1.8025678 l -0.754825,6.387851 H 28.32743 l 0.844954,-7.165208 q 0.101395,-0.7773577 0.101395,-1.3857244 0,-0.9463482 -0.326716,-1.4307884 Q 28.620348,6.965326 27.78666,6.965326 q -1.28433,0 -2.377137,1.1716693 -1.08154,1.1716692 -1.903962,3.3122187 L 22.7958,17.442753 Z"
         style="font-style:italic;font-variant:normal;font-weight:300;font-stretch:normal;font-family:Lato;-inkscape-font-specification:'Lato Light Italic';fill:#66b8cf;fill-opacity:1;stroke-width:0.563305"
         id="path66" />
      <path
         d="m 46.621032,17.442753 q -0.214055,0 -0.304183,-0.101395 -0.07886,-0.101394 -0.07886,-0.247853 l 0.37178,-3.571338 q -0.439376,0.91255 -0.991412,1.667376 -0.540771,0.743559 -1.149138,1.28433 -0.608366,0.529504 -1.273063,0.822421 -0.664697,0.292917 -1.351926,0.292917 -0.732294,0 -1.28433,-0.281651 -0.552036,-0.281651 -0.923816,-0.799889 -0.37178,-0.518239 -0.563303,-1.250532 -0.191523,-0.732293 -0.191523,-1.644843 0,-0.85622 0.180257,-1.746238 0.180257,-0.901284 0.506973,-1.734972 0.337981,-0.8449536 0.811155,-1.5772469 0.48444,-0.7435593 1.092807,-1.2955958 0.608367,-0.5520364 1.329394,-0.8674858 0.721027,-0.3267155 1.543449,-0.3267155 0.91255,0 1.678641,0.4055778 0.766092,0.3943118 1.261798,1.1942013 l 0.822422,-6.6131715 h 1.036476 L 47.13927,17.442753 Z m -4.427558,-0.721027 q 0.642165,0 1.28433,-0.349248 0.642165,-0.360514 1.239266,-1.013944 0.608366,-0.653431 1.126605,-1.565981 0.529504,-0.923817 0.935082,-2.039156 L 47.173069,8.5087749 Q 46.688628,7.630023 45.967601,7.2695094 45.246574,6.9089958 44.469216,6.9089958 q -0.709761,0 -1.329393,0.2929173 -0.608367,0.2816512 -1.115339,0.7773575 -0.495707,0.4957062 -0.890018,1.1491371 -0.383046,0.6534309 -0.653431,1.3857243 -0.25912,0.732293 -0.405578,1.509651 -0.135193,0.777357 -0.135193,1.498384 0,1.509651 0.574569,2.354605 0.574568,0.844954 1.678641,0.844954 z"
         style="font-style:italic;font-variant:normal;font-weight:300;font-stretch:normal;font-family:Lato;-inkscape-font-specification:'Lato Light Italic';fill:#66b8cf;fill-opacity:1;stroke-width:0.563305"
         id="path68" />
      <path
         d="m 58.276111,17.442753 h -0.518239 q -0.214055,0 -0.304183,-0.101395 -0.07886,-0.101394 -0.07886,-0.247853 l 0.371779,-3.526273 q -0.42811,0.901284 -0.946348,1.644843 -0.506972,0.732293 -1.092807,1.261798 -0.574568,0.529504 -1.216733,0.822421 -0.642165,0.292917 -1.329394,0.292917 -0.709761,0 -1.239266,-0.270385 -0.529504,-0.281651 -0.890018,-0.788623 -0.349247,-0.506973 -0.529504,-1.228 -0.180257,-0.721027 -0.180257,-1.622311 0,-0.980146 0.247853,-1.915229 0.247853,-0.946348 0.698495,-1.7913015 0.461908,-0.8449538 1.092807,-1.554715 0.630899,-0.7097612 1.385724,-1.2279995 0.766092,-0.5182383 1.633578,-0.8111556 0.867486,-0.2929173 1.791302,-0.2929173 0.675963,0 1.261797,0.1239266 0.585835,0.1126605 1.160404,0.4055778 z m -4.76554,-0.743559 q 0.642165,0 1.261798,-0.360514 0.630899,-0.360514 1.194201,-1.013945 0.563303,-0.664697 1.059009,-1.588513 0.506972,-0.935082 0.901284,-2.061687 l 0.563303,-4.5627503 q -0.664697,-0.225321 -1.442055,-0.225321 -0.754825,0 -1.464586,0.2591191 -0.709762,0.2478531 -1.34066,0.6984951 -0.619633,0.4506421 -1.149138,1.0702748 -0.518238,0.6196328 -0.901284,1.3631923 -0.383045,0.732293 -0.5971,1.554715 -0.202789,0.822421 -0.202789,1.678641 0,1.509651 0.506972,2.354605 0.518238,0.833688 1.611045,0.833688 z"
         style="font-style:italic;font-variant:normal;font-weight:300;font-stretch:normal;font-family:Lato;-inkscape-font-specification:'Lato Light Italic';fill:#66b8cf;fill-opacity:1;stroke-width:0.563305"
         id="path70" />
      <path
         d="m 68.826417,21.408403 h -0.608366 q -0.225321,0 -0.326716,-0.123927 -0.09013,-0.123927 -0.09013,-0.326715 0,-0.09013 0.01127,-0.146459 l 0.890018,-7.063814 q -0.42811,0.867486 -0.935082,1.577247 -0.495707,0.698495 -1.070275,1.205468 -0.563303,0.506972 -1.194202,0.788623 -0.619632,0.270385 -1.295595,0.270385 -0.709762,0 -1.239266,-0.270385 -0.529504,-0.281651 -0.890018,-0.788623 -0.349247,-0.506973 -0.529504,-1.228 -0.180257,-0.721027 -0.180257,-1.622311 0,-0.980146 0.247853,-1.915229 0.247853,-0.946348 0.698495,-1.7913015 0.461908,-0.8449538 1.092807,-1.554715 0.630899,-0.7097612 1.385724,-1.2279995 0.766092,-0.5182383 1.633578,-0.8111556 0.867485,-0.2929173 1.791302,-0.2929173 0.675963,0 1.261797,0.1239266 0.585835,0.1126605 1.160403,0.4055778 z m -4.269833,-4.709209 q 0.642165,0 1.250532,-0.349248 0.619633,-0.360514 1.182935,-1.013945 0.563303,-0.65343 1.059009,-1.565981 0.495706,-0.91255 0.890018,-2.027889 l 0.01127,-0.0338 0.585834,-4.5965483 q -0.664697,-0.225321 -1.442054,-0.225321 -0.754825,0 -1.464587,0.2591191 -0.709761,0.2478531 -1.34066,0.6984951 -0.619632,0.4506421 -1.149137,1.0702748 -0.518238,0.6196328 -0.901284,1.3631923 -0.383045,0.732293 -0.5971,1.554715 -0.202789,0.822421 -0.202789,1.678641 0,1.509651 0.506972,2.354605 0.518238,0.833688 1.611045,0.833688 z"
         style="font-style:italic;font-variant:normal;font-weight:300;font-stretch:normal;font-family:Lato;-inkscape-font-specification:'Lato Light Italic';fill:#66b8cf;fill-opacity:1;stroke-width:0.563305"
         id="path72" />
    </g>
    <path
       style="fill:#66b8cf;fill-opacity:1;stroke-width:0.698671"
       id="path568"
       d="m 73.099913,22.899625 c -2.824633,0.09651 -5.647692,0.215258 -8.47392,0.289557 -5.3661,0.14109 -10.735727,0.220453 -16.102132,0.35656 -20.190435,0.51209 -26.684471,0.539784 -47.4372635,1.207471 l -0.39830111,0.39837 v 0 C 23.321339,24.63805 46.029737,23.936735 68.655143,24.998804 l 4.44477,-2.099188 z"
       sodipodi:nodetypes="scsccsccs" />
  </g>
</svg>
